:SAMPLES-PER-SECOND 30
:FULLY-SPECIFIED
:DEGREES
431
root  -6.80678 39.4609 11.8436 -4.17853 -61.2828 4.73436
RightUpLeg  10.5364 1.77431 0.291695
RightLeg  32.8897 8.31932 5.51538
RightFoot  45.7491 -8.66152 16.485
RightToes  -1.33073e-015 0 -3.6325e-017
Spine  -11.315 23.5458 31.0871
Spine1  -5.28544 22.8803 -25.4508
HEad  24.5016 -63.9443 -14.0445
LeftShoulder1  2.19271 -7.47676 -12.9508
LeftArm  -65.8789 -31.1218 -11.5428
LeftForeArm  138.476 -80.5351 -111.1
LeftHand  -0.246645 0.021 5.37786
RightShoulder  1.98167 9.27601 8.0089
RightArm  110.666 53.1829 163.908
RightForeArm  61.6689 59.0795 13.223
RightHand  -0.24729 -0.0210522 -5.37781
LeftUpLeg  -11.33 -8.22633 -9.40009
LeftLeg  37.4147 -69.1061 -36.6631
LeftFoot  7.3911 1.49983 -9.35175
LeftToes  5.09284e-011 3.02203e-011 3.83118e-011
432
root  -6.83648 39.4691 11.818 -4.25157 -61.3546 4.8345
RightUpLeg  10.621 1.69612 0.203003
RightLeg  32.7478 8.45687 5.57941
RightFoot  45.7193 -8.68643 16.5399
RightToes  -1.33073e-015 0 -3.6325e-017
Spine  -11.2688 23.7383 31.112
Spine1  -5.42764 23.0812 -25.7507
HEad  24.4231 -64.0006 -13.7564
LeftShoulder1  2.19569 -7.48863 -12.9569
LeftArm  -65.903 -31.1284 -11.4662
LeftForeArm  138.907 -80.5219 -111.404
LeftHand  -0.246645 0.021 5.37786
RightShoulder  1.99985 9.29797 8.13855
RightArm  110.572 53.1857 163.708
RightForeArm  61.8693 59.1162 13.2302
RightHand  -0.24729 -0.0210522 -5.37781
LeftUpLeg  -11.2792 -8.43387 -9.41014
LeftLeg  36.8359 -68.8896 -36.0028
LeftFoot  7.36871 1.44135 -9.00904
LeftToes  5.09284e-011 3.02203e-011 3.83118e-011
433
root  -6.86595 39.4736 11.7946 -4.25377 -61.3128 4.84601
RightUpLeg  10.7242 1.57276 0.187058
RightLeg  32.6032 8.58726 5.63702
RightFoot  45.6748 -8.68349 16.5489
RightToes  -1.33073e-015 0 -3.6325e-017
Spine  -11.261 23.9458 31.2395
Spine1  -5.50848 23.3085 -26.1608
HEad  24.325 -64.0807 -13.5002
LeftShoulder1  2.16725 -7.44189 -12.7644
LeftArm  -65.8844 -31.1436 -11.6377
LeftForeArm  139.614 -80.4707 -112.162
LeftHand  -0.246645 0.021 5.37786
RightShoulder  2.01423 9.26345 8.31261
RightArm  110.507 53.1466 163.547
RightForeArm  62.0443 59.1921 13.2633
RightHand  -0.24729 -0.0210522 -5.37781
LeftUpLeg  -11.2779 -8.731 -9.3849
LeftLeg  36.5542 -68.5875 -35.6435
LeftFoot  7.34946 1.38027 -8.64834
LeftToes  5.09284e-011 3.02203e-011 3.83118e-011
434
root  -6.8927 39.4792 11.7726 -4.22449 -61.2903 4.8461
RightUpLeg  10.792 1.51318 0.211675
RightLeg  32.4687 8.66048 5.65743
RightFoot  45.6448 -8.66557 16.5261
RightToes  -1.33073e-015 0 -3.6325e-017
Spine  -11.274 24.1704 31.4567
Spine1  -5.49322 23.5627 -26.5754
HEad  24.229 -64.0685 -13.3956
LeftShoulder1  2.15172 -7.4054 -12.6803
LeftArm  -65.9643 -31.0532 -11.6312
LeftForeArm  140.359 -80.406 -113.033
LeftHand  -0.246645 0.021 5.37786
RightShoulder  2.00955 9.18735 8.37742
RightArm  110.536 53.0103 163.589
RightForeArm  62.1047 59.1975 13.262
RightHand  -0.24729 -0.0210522 -5.37781
LeftUpLeg  -11.3081 -8.95376 -9.34094
LeftLeg  36.379 -68.3343 -35.4146
LeftFoot  7.3497 1.32942 -8.34064
LeftToes  5.09284e-011 3.02203e-011 3.83118e-011
435
root  -6.92019 39.4846 11.7511 -4.24937 -61.3423 4.93716
RightUpLeg  10.8122 1.54832 0.218389
RightLeg  32.3718 8.66187 5.63742
RightFoot  45.6059 -8.64042 16.4929
RightToes  -1.33073e-015 0 -3.6325e-017
Spine  -11.3183 24.3827 31.6212
Spine1  -5.43018 23.7935 -26.825
HEad  24.2911 -63.8919 -13.6171
LeftShoulder1  2.16048 -7.36071 -12.8592
LeftArm  -66.1027 -30.8453 -11.3412
LeftForeArm  141.108 -80.3488 -113.818
LeftHand  -0.246645 0.021 5.37786
RightShoulder  1.99217 9.17004 8.24812
RightArm  110.487 52.8227 163.708
RightForeArm  62.1469 59.1581 13.2346
RightHand  -0.24729 -0.0210522 -5.37781
LeftUpLeg  -11.3247 -8.97608 -9.32828
LeftLeg  36.2638 -68.2947 -35.2947
LeftFoot  7.40618 1.30494 -8.16939
LeftToes  5.09284e-011 3.02203e-011 3.83118e-011
436
root  -6.94909 39.4885 11.7261 -4.33885 -61.3988 5.09491
RightUpLeg  10.8253 1.61055 0.22072
RightLeg  32.3075 8.58858 5.57453
RightFoot  45.5428 -8.59374 16.4283
RightToes  -1.33073e-015 0 -3.6325e-017
Spine  -11.3905 24.5566 31.6577
Spine1  -5.38349 23.9658 -26.9132
HEad  24.4898 -63.6714 -14.0307
LeftShoulder1  2.16176 -7.25977 -13.0775
LeftArm  -66.1453 -30.6561 -11.1397
LeftForeArm  141.766 -80.3002 -114.477
LeftHand  -0.246645 0.021 5.37786
RightShoulder  1.9825 9.22862 8.08126
RightArm  110.277 52.6714 163.687
RightForeArm  62.2681 59.1646 13.2294
RightHand  -0.24729 -0.0210522 -5.37781
LeftUpLeg  -11.3244 -8.86529 -9.35007
LeftLeg  36.2936 -68.3757 -35.3511
LeftFoot  7.53992 1.2832 -7.98552
LeftToes  5.09284e-011 3.02203e-011 3.83118e-011
437
root  -6.97444 39.496 11.6919 -4.44923 -61.4027 5.24652
RightUpLeg  10.8547 1.65551 0.261019
RightLeg  32.2393 8.44893 5.46686
RightFoot  45.4936 -8.52929 16.3266
RightToes  -1.33073e-015 0 -3.6325e-017
Spine  -11.3818 24.7276 31.6674
Spine1  -5.47258 24.1368 -27.1468
HEad  24.7189 -63.6181 -14.3062
LeftShoulder1  2.15426 -7.2409 -13.04
LeftArm  -66.0598 -30.5956 -11.2287
LeftForeArm  142.011 -80.2804 -114.732
LeftHand  -0.246645 0.021 5.37786
RightShoulder  2.00999 9.27643 8.25724
RightArm  110.107 52.6232 163.416
RightForeArm  62.415 59.2186 13.2513
RightHand  -0.24729 -0.0210522 -5.37781
LeftUpLeg  -11.3354 -8.76982 -9.37515
LeftLeg  36.393 -68.3493 -35.4629
LeftFoot  7.72762 1.22149 -7.54654
LeftToes  5.09284e-011 3.02203e-011 3.83118e-011
438
root  -6.99407 39.5111 11.6494 -4.58821 -61.3898 5.42111
RightUpLeg  10.881 1.71166 0.310418
RightLeg  32.1498 8.27244 5.33066
RightFoot  45.4873 -8.48539 16.2485
RightToes  -1.33073e-015 0 -3.6325e-017
Spine  -11.2362 24.9114 31.7272
Spine1  -5.72253 24.3407 -27.652
HEad  24.9825 -63.6885 -14.3822
LeftShoulder1  2.16126 -7.39437 -12.799
LeftArm  -65.9311 -30.6285 -11.3919
LeftForeArm  141.921 -80.3028 -114.515
LeftHand  -0.246645 0.021 5.37786
RightShoulder  2.06909 9.28228 8.76767
RightArm  110.144 52.6828 163.042
RightForeArm  62.4971 59.2637 13.2728
RightHand  -0.24729 -0.0210522 -5.37781
LeftUpLeg  -11.3407 -8.80786 -9.41536
LeftLeg  36.184 -68.1528 -35.2191
LeftFoot  7.89801 1.12107 -6.89364
LeftToes  5.09284e-011 3.02203e-011 3.83118e-011
439
root  -7.0114 39.5304 11.6062 -4.78795 -61.4145 5.68643
RightUpLeg  10.8857 1.7819 0.289188
RightLeg  32.0511 8.11602 5.20657
RightFoot  45.4915 -8.48569 16.2477
RightToes  -1.33073e-015 0 -3.6325e-017
Spine  -11.1426 25.0269 31.7252
Spine1  -5.8596 24.4828 -27.9753
HEad  25.1971 -63.5989 -14.4713
LeftShoulder1  2.16148 -7.44979 -12.6904
LeftArm  -65.8196 -30.6797 -11.4867
LeftForeArm  142.211 -80.314 -114.535
LeftHand  -0.246645 0.021 5.37786
RightShoulder  2.09116 9.29669 8.94058
RightArm  110.251 52.7534 162.948
RightForeArm  62.5318 59.295 13.2893
RightHand  -0.24729 -0.0210522 -5.37781
LeftUpLeg  -11.2952 -8.9923 -9.50831
LeftLeg  35.4456 -67.913 -34.4011
LeftFoot  8.00162 1.02296 -6.28542
LeftToes  5.09284e-011 3.02203e-011 3.83118e-011
440
root  -7.02758 39.5488 11.5662 -5.00272 -61.4847 5.99178
RightUpLeg  10.8749 1.8026 0.175535
RightLeg  31.9551 8.05982 5.15013
RightFoot  45.4693 -8.50651 16.2928
RightToes  -1.33073e-015 0 -3.6325e-017
Spine  -11.2784 25.0084 31.5797
Spine1  -5.64257 24.4767 -27.7272
HEad  25.1019 -63.3092 -14.6012
LeftShoulder1  2.12076 -7.16297 -12.8556
LeftArm  -65.7408 -30.7277 -11.6282
LeftForeArm  143.039 -80.2652 -115.245
LeftHand  -0.246645 0.021 5.37786
RightShoulder  2.03172 9.31705 8.39115
RightArm  110.224 52.7007 163.284
RightForeArm  62.6042 59.3266 13.3034
RightHand  -0.24729 -0.0210522 -5.37781
LeftUpLeg  -11.2267 -9.17967 -9.6273
LeftLeg  34.5673 -67.7352 -33.4358
LeftFoot  8.07413 0.939538 -5.7776
LeftToes  5.09284e-011 3.02203e-011 3.83118e-011
441
root  -7.03919 39.5641 11.5275 -5.16096 -61.596 6.22217
RightUpLeg  10.8668 1.76698 0.0332249
RightLeg  31.8676 8.15055 5.19278
RightFoot  45.438 -8.52238 16.3318
RightToes  -1.33073e-015 0 -3.6325e-017
Spine  -11.44 24.9338 31.4687
Spine1  -5.35116 24.4026 -27.3562
HEad  24.6672 -63.1613 -14.5249
LeftShoulder1  2.07651 -6.85466 -13.0355
LeftArm  -65.6847 -30.7514 -11.8105
LeftForeArm  143.307 -80.2205 -115.701
LeftHand  -0.246645 0.021 5.37786
RightShoulder  1.96255 9.28675 7.82641
RightArm  110.083 52.5419 163.587
RightForeArm  62.7295 59.3211 13.2904
RightHand  -0.24729 -0.0210522 -5.37781
LeftUpLeg  -11.2167 -9.24475 -9.696
LeftLeg  34.0891 -67.5653 -32.8974
LeftFoot  8.17127 0.8461 -5.20933
LeftToes  5.09284e-011 3.02203e-011 3.83118e-011
442
root  -7.04607 39.5751 11.4891 -5.29143 -61.7611 6.37971
RightUpLeg  10.8713 1.79594 -0.0690941
RightLeg  31.8046 8.32377 5.29441
RightFoot  45.4186 -8.55036 16.3891
RightToes  -1.33073e-015 0 -3.6325e-017
Spine  -11.3366 24.9258 31.587
Spine1  -5.38875 24.409 -27.519
HEad  24.2041 -63.3446 -14.1188
LeftShoulder1  2.10381 -7.0069 -13.0034
LeftArm  -65.6122 -30.7465 -11.8284
LeftForeArm  142.14 -80.277 -114.808
LeftHand  -0.246645 0.021 5.37786
RightShoulder  1.97985 9.2243 8.06402
RightArm  109.975 52.4687 163.341
RightForeArm  62.8263 59.2323 13.2286
RightHand  -0.24729 -0.0210522 -5.37781
LeftUpLeg  -11.271 -9.30116 -9.70455
LeftLeg  33.9171 -67.2618 -32.6703
LeftFoot  8.27588 0.740417 -4.57391
LeftToes  5.09284e-011 3.02203e-011 3.83118e-011
443
root  -7.05257 39.5817 11.4515 -5.46225 -61.9796 6.56694
RightUpLeg  10.8608 1.98726 -0.123543
RightLeg  31.7881 8.45423 5.37694
RightFoot  45.3723 -8.60888 16.5111
RightToes  -1.33073e-015 0 -3.6325e-017
Spine  -11.1415 24.9632 31.7852
Spine1  -5.54125 24.4793 -27.946
HEad  23.8512 -63.5611 -13.5668
LeftShoulder1  2.20023 -7.5013 -12.9761
LeftArm  -65.4893 -30.7809 -11.7148
LeftForeArm  140.291 -80.3957 -113.095
LeftHand  -0.246645 0.021 5.37786
RightShoulder  2.04994 9.21588 8.69361
RightArm  109.933 52.5963 162.762
RightForeArm  62.8531 59.0791 13.1331
RightHand  -0.24729 -0.0210522 -5.37781
LeftUpLeg  -11.327 -9.53343 -9.71657
LeftLeg  33.5138 -66.785 -32.1652
LeftFoot  8.33985 0.651457 -4.04852
LeftToes  5.09284e-011 3.02203e-011 3.83118e-011
444
root  -7.05968 39.5877 11.4112 -5.63777 -62.2291 6.81377
RightUpLeg  10.7745 2.25297 -0.177118
RightLeg  31.8188 8.51808 5.42548
RightFoot  45.2573 -8.66882 16.6583
RightToes  -1.33073e-015 0 -3.6325e-017
Spine  -11.2556 24.9189 31.7852
Spine1  -5.30031 24.4586 -27.8826
HEad  23.4182 -63.4744 -13.0829
LeftShoulder1  2.29059 -7.79199 -13.2925
LeftArm  -65.2948 -30.9462 -11.822
LeftForeArm  138.934 -80.4846 -111.757
LeftHand  -0.246645 0.021 5.37786
RightShoulder  2.07192 9.27556 8.80237
RightArm  109.891 52.7747 162.424
RightForeArm  62.8207 58.8715 13.0104
RightHand  -0.24729 -0.0210522 -5.37781
LeftUpLeg  -11.3843 -9.86332 -9.75339
LeftLeg  32.7733 -66.2631 -31.2823
LeftFoot  8.38129 0.582775 -3.64656
LeftToes  5.09284e-011 3.02203e-011 3.83118e-011
445
root  -7.06473 39.5996 11.3648 -5.74525 -62.5106 7.05107
RightUpLeg  10.6098 2.41527 -0.285327
RightLeg  31.8629 8.60507 5.49222
RightFoot  45.1164 -8.69523 16.7531
RightToes  -1.33073e-015 0 -3.6325e-017
Spine  -11.5973 24.7573 31.6707
Spine1  -4.78804 24.2968 -27.4319
HEad  22.9466 -63.1854 -12.7391
LeftShoulder1  2.34326 -7.76685 -13.8567
LeftArm  -64.9067 -31.2236 -12.3781
LeftForeArm  137.733 -80.5698 -110.456
LeftHand  -0.246645 0.021 5.37786
RightShoulder  2.05267 9.35352 8.52366
RightArm  109.784 52.8295 162.246
RightForeArm  62.6943 58.5398 12.8234
RightHand  -0.24729 -0.0210522 -5.37781
LeftUpLeg  -11.4805 -10.0541 -9.77058
LeftLeg  32.0542 -65.8323 -30.4365
LeftFoot  8.44713 0.503017 -3.17954
LeftToes  5.09284e-011 3.02203e-011 3.83118e-011
